<?xml version="1.0" standalone="no"?>
<!DOCTYPE svg PUBLIC "-//W3C//DTD SVG 20010904//EN"
 "http://www.w3.org/TR/2001/REC-SVG-20010904/DTD/svg10.dtd">
<svg version="1.0" xmlns="http://www.w3.org/2000/svg"
 width="880.000000pt" height="880.000000pt" viewBox="0 0 880.000000 880.000000"
 preserveAspectRatio="xMidYMid meet">
<metadata>
Created by potrace 1.14, written by Peter Selinger 2001-2017
</metadata>
<g transform="translate(0.000000,880.000000) scale(0.100000,-0.100000)"
fill="#000000" stroke="none">
<path d="M2000 8200 l0 -200 -200 0 -200 0 0 -400 0 -400 -200 0 -200 0 0
-3200 0 -3200 3200 0 3200 0 0 3200 0 3200 -200 0 -200 0 0 400 0 400 -200 0
-200 0 0 200 0 200 -600 0 -600 0 0 -200 0 -200 -200 0 -200 0 0 -400 0 -400
-800 0 -800 0 0 400 0 400 -200 0 -200 0 0 200 0 200 -600 0 -600 0 0 -200z
m1200 -600 l0 -400 -600 0 -600 0 0 400 0 400 600 0 600 0 0 -400z m3600 0 l0
-400 -600 0 -600 0 0 400 0 400 600 0 600 0 0 -400z m400 -3600 l0 -2800 -200
0 -200 0 0 200 0 200 -600 0 -600 0 0 -200 0 -200 -1200 0 -1200 0 0 200 0
200 -600 0 -600 0 0 -200 0 -200 -200 0 -200 0 0 2800 0 2800 2800 0 2800 0 0
-2800z"/>
<path d="M2400 4400 l0 -400 400 0 400 0 0 400 0 400 -400 0 -400 0 0 -400z"/>
<path d="M5600 4400 l0 -400 400 0 400 0 0 400 0 400 -400 0 -400 0 0 -400z"/>
<path d="M4000 2800 l0 -400 -400 0 -400 0 0 200 0 200 -200 0 -200 0 0 -200
0 -200 200 0 200 0 0 -200 0 -200 400 0 400 0 0 200 0 200 400 0 400 0 0 -200
0 -200 400 0 400 0 0 200 0 200 200 0 200 0 0 200 0 200 -200 0 -200 0 0 -200
0 -200 -400 0 -400 0 0 400 0 400 -400 0 -400 0 0 -400z"/>
</g>
</svg>
